<mxfile host="app.diagrams.net" modified="2024-02-06T03:42:35.498Z" agent="Mozilla/5.0 (Windows NT 10.0; Win64; x64) AppleWebKit/537.36 (KHTML, like Gecko) Chrome/121.0.0.0 Safari/537.36" etag="y5lDSXzv9HXfqezyvM68" version="23.1.1" type="github">
  <diagram name="Page-1" id="ipdqrgInEcByQ0ItUpc9">
    <mxGraphModel dx="2049" dy="1103" grid="1" gridSize="10" guides="1" tooltips="1" connect="1" arrows="1" fold="1" page="1" pageScale="1" pageWidth="850" pageHeight="1100" math="0" shadow="0">
      <root>
        <mxCell id="0" />
        <mxCell id="1" parent="0" />
        <mxCell id="580RtoxhVZZotb-mhMrW-9" value="" style="edgeStyle=orthogonalEdgeStyle;rounded=0;orthogonalLoop=1;jettySize=auto;html=1;" edge="1" parent="1" source="580RtoxhVZZotb-mhMrW-7" target="580RtoxhVZZotb-mhMrW-8">
          <mxGeometry relative="1" as="geometry" />
        </mxCell>
        <mxCell id="580RtoxhVZZotb-mhMrW-7" value="&lt;font style=&quot;font-size: 18px;&quot;&gt;Mengisi form kunjungan&lt;/font&gt;" style="ellipse;whiteSpace=wrap;html=1;" vertex="1" parent="1">
          <mxGeometry x="325" y="320" width="180" height="110" as="geometry" />
        </mxCell>
        <mxCell id="580RtoxhVZZotb-mhMrW-11" value="" style="edgeStyle=orthogonalEdgeStyle;rounded=0;orthogonalLoop=1;jettySize=auto;html=1;" edge="1" parent="1" source="580RtoxhVZZotb-mhMrW-8" target="580RtoxhVZZotb-mhMrW-10">
          <mxGeometry relative="1" as="geometry" />
        </mxCell>
        <mxCell id="580RtoxhVZZotb-mhMrW-8" value="&lt;span style=&quot;font-size: 18px;&quot;&gt;Riwayat kunjungan&lt;/span&gt;" style="ellipse;whiteSpace=wrap;html=1;" vertex="1" parent="1">
          <mxGeometry x="325" y="460" width="180" height="110" as="geometry" />
        </mxCell>
        <mxCell id="580RtoxhVZZotb-mhMrW-16" value="" style="edgeStyle=orthogonalEdgeStyle;rounded=0;orthogonalLoop=1;jettySize=auto;html=1;" edge="1" parent="1" source="580RtoxhVZZotb-mhMrW-10" target="580RtoxhVZZotb-mhMrW-15">
          <mxGeometry relative="1" as="geometry" />
        </mxCell>
        <mxCell id="580RtoxhVZZotb-mhMrW-10" value="&lt;span style=&quot;font-size: 18px;&quot;&gt;Mencari Buku&lt;br&gt;&lt;/span&gt;" style="ellipse;whiteSpace=wrap;html=1;" vertex="1" parent="1">
          <mxGeometry x="325" y="600" width="180" height="110" as="geometry" />
        </mxCell>
        <mxCell id="580RtoxhVZZotb-mhMrW-14" style="edgeStyle=orthogonalEdgeStyle;rounded=0;orthogonalLoop=1;jettySize=auto;html=1;entryX=0;entryY=0.5;entryDx=0;entryDy=0;" edge="1" parent="1" source="580RtoxhVZZotb-mhMrW-12" target="580RtoxhVZZotb-mhMrW-7">
          <mxGeometry relative="1" as="geometry" />
        </mxCell>
        <mxCell id="580RtoxhVZZotb-mhMrW-12" value="Pengunjung" style="shape=umlActor;verticalLabelPosition=bottom;verticalAlign=top;html=1;outlineConnect=0;" vertex="1" parent="1">
          <mxGeometry x="30" y="460" width="90" height="180" as="geometry" />
        </mxCell>
        <mxCell id="580RtoxhVZZotb-mhMrW-15" value="&lt;span style=&quot;font-size: 18px;&quot;&gt;Lihat Rincian Buku&lt;br&gt;&lt;/span&gt;" style="ellipse;whiteSpace=wrap;html=1;" vertex="1" parent="1">
          <mxGeometry x="325" y="740" width="180" height="110" as="geometry" />
        </mxCell>
        <mxCell id="580RtoxhVZZotb-mhMrW-20" value="&lt;font style=&quot;font-size: 18px;&quot;&gt;Use Case Perpustakaan DIgital&lt;/font&gt;" style="swimlane;whiteSpace=wrap;html=1;startSize=60;" vertex="1" parent="1">
          <mxGeometry x="160" y="240" width="520" height="650" as="geometry" />
        </mxCell>
      </root>
    </mxGraphModel>
  </diagram>
</mxfile>
